<svg xmlns="http://www.w3.org/2000/svg" xmlns:xlink="http://www.w3.org/1999/xlink" preserveAspectRatio="xMidYMid" width="50.031" height="48.031" viewBox="0 0 50.031 48.031">
  <defs>
    <style>
      .cls-1 {
        fill: #575757;
        fill-rule: evenodd;
      }
    </style>
  </defs>
  <path d="M11.025,48.024 L1.272,48.024 L1.272,15.400 L11.025,15.400 L11.025,48.024 ZM5.899,11.321 L5.828,11.321 C2.299,11.321 0.011,8.826 0.011,5.666 C0.011,2.445 2.368,0.002 5.967,0.002 C9.564,0.002 11.778,2.439 11.848,5.657 C11.848,8.818 9.564,11.321 5.899,11.321 ZM50.043,48.024 L38.985,48.024 L38.985,31.142 C38.985,26.723 37.256,23.708 33.452,23.708 C30.542,23.708 28.925,25.743 28.171,27.706 C27.890,28.407 27.933,29.389 27.933,30.372 L27.933,48.024 L16.977,48.024 C16.977,48.024 17.120,18.120 16.977,15.400 L27.933,15.400 L27.933,20.520 C28.581,18.283 32.080,15.087 37.669,15.087 C44.598,15.087 50.043,19.781 50.043,29.884 L50.043,48.024 Z" class="cls-1"/>
</svg>
