<svg xmlns="http://www.w3.org/2000/svg" xmlns:xlink="http://www.w3.org/1999/xlink" preserveAspectRatio="xMidYMid" width="49.938" height="40" viewBox="0 0 49.938 40">
  <defs>
    <style>
      .cls-1 {
        fill: #575757;
        fill-rule: evenodd;
      }
    </style>
  </defs>
  <path d="M49.947,4.731 C48.109,5.535 46.134,6.077 44.061,6.320 C46.177,5.072 47.802,3.092 48.567,0.733 C46.587,1.892 44.393,2.731 42.059,3.184 C40.189,1.221 37.526,-0.005 34.578,-0.005 C28.918,-0.005 24.329,4.517 24.329,10.094 C24.329,10.886 24.420,11.656 24.595,12.396 C16.077,11.975 8.526,7.954 3.471,1.844 C2.589,3.335 2.083,5.069 2.083,6.921 C2.083,10.424 3.893,13.516 6.643,15.327 C4.962,15.275 3.382,14.820 2.000,14.064 C2.000,14.106 2.000,14.148 2.000,14.191 C2.000,19.084 5.532,23.165 10.221,24.093 C9.361,24.323 8.455,24.448 7.521,24.448 C6.860,24.448 6.218,24.384 5.592,24.265 C6.896,28.278 10.681,31.198 15.166,31.280 C11.658,33.988 7.240,35.603 2.438,35.603 C1.611,35.603 0.795,35.555 -0.007,35.462 C4.529,38.328 9.916,39.999 15.703,39.999 C34.554,39.999 44.863,24.611 44.863,11.264 C44.863,10.827 44.853,10.391 44.833,9.958 C46.835,8.536 48.573,6.756 49.947,4.731 Z" class="cls-1"/>
</svg>
